<svg id="Capa_1" data-name="Capa 1" xmlns="http://www.w3.org/2000/svg" viewBox="0 0 566.93 170.08"><defs><style>.cls-1{font-size:71.99px;font-family:Impact;}.cls-2{letter-spacing:-0.01em;}.cls-3{fill:#e51837;}.cls-4{fill:#fff;}</style></defs><text class="cls-1" transform="translate(156.56 111.83) scale(1.23 1)">N<tspan class="cls-2" x="38.98" y="0">E</tspan><tspan x="67.95" y="0">TMOTION</tspan></text><rect class="cls-3" x="11.46" y="25.66" width="118.77" height="118.77" rx="31.19"/><path class="cls-4" d="M29.15,119.08a109.53,109.53,0,0,0,40.43-39c3,9.29,9.7,13.64,17.44,17,10.13,4.33,15.88,12.2,18.39,23.89l-5-3.4a37.27,37.27,0,0,0-4.83-3.27,161.81,161.81,0,0,0-16-7c-6.7-2.31-12.55-2.59-18.71,3.52C52.53,119.08,41.09,120.76,29.15,119.08Z"/><path class="cls-4" d="M37.62,78.52C42.27,71.38,48,66.16,55.78,63.39s14.94-1.76,21.33,3.51c3.35,2.76,6.56,5.69,9.76,8.62,7.52,6.9,15.76,9.72,25.66,4.37C108,89.61,97.68,93.49,88.28,89a40.39,40.39,0,0,1-8.67-5.68C66.77,72.4,53.29,67.5,37.62,78.52Z"/><path class="cls-4" d="M102.24,57.71c-4.43,4.1-7,8.4-10.26,9.05-4.9,1-7.43-3.19-7.57-8.2-.15-5.57,3.17-10.47,7.23-9.22C95.06,50.38,97.7,54,102.24,57.71Z"/></svg>